<svg xmlns="http://www.w3.org/2000/svg"  viewBox="0 0 64 64" width="64px" height="64px"><path fill="#8d6c9f" d="M59.779,32.532c0.258,1.457-0.129,3.744-0.148,3.892c-0.055,0.609-1.31,1.955-4.427,1.789 c-0.48-0.037-0.941-0.148-1.383-0.35l-0.055,0.055c-0.148,0.148-0.184,0.258-0.646,0.258H42.827 c-0.166,0.018-0.314-0.092-0.332-0.258c-0.055-0.166-0.166-0.664-0.166-0.664l-0.24,0.664c-0.037,0.166-0.203,0.295-0.387,0.258 h-2.767c-0.037,0-0.055,0-0.092-0.018c-0.092-0.037-0.129-0.148-0.092-0.24c0.037-0.166,0.203-0.664,0.203-0.664 c-0.406,0.572-1.07,0.922-1.771,0.922h-0.295l-0.295,1.586c-0.018,0.184-0.166,0.314-0.332,0.332h-2.896 c-0.172,0-0.314-0.141-0.314-0.314v-8.854l-1.125-0.996v0.003c-0.062,0.902-0.812,1.602-1.716,1.602h-1.933 c-0.874,0-1.609-0.655-1.709-1.524l-0.009-0.081l-0.785,0.911c-0.38,0.441-0.933,0.694-1.515,0.694h-6.443 c-0.256,0-0.509-0.049-0.746-0.144l-1.246-0.501c0,0,0,0.147,0,0.148c0,0.274-0.222,0.497-0.496,0.499c-0.001,0-3.101,0-3.101,0 c-0.362,0-0.718-0.099-1.029-0.285l-4.11-2.466c-0.129-0.101-0.256-0.2-0.385-0.301l-2.118-2.118C4.211,25.992,4,25.483,4,24.953 V14.98c0-1.105,0.895-2,2-2h2.831c0.792,0,1.552,0.313,2.115,0.872l2.018,2.006H26.06V14.98c0-1.105,0.895-2,2-2h6.883 c1.105,0,2,0.895,2,2v0.877h1.277c0.884,0,1.6,0.716,1.6,1.6v0.005l1.019-1.019c0.375-0.375,0.884-0.586,1.414-0.586h2.363 l1.999-1.999c0.563-0.563,1.326-0.879,2.121-0.879h2.844c1.105,0,2,0.895,2,2v0.877h2.695c0.53,0,1.039,0.211,1.414,0.586 l1.708,1.708c0.374,0.374,0.585,0.881,0.586,1.41l0.015,7.693c0.001,0.67-0.333,1.296-0.891,1.668l-2.262,1.508 C58.58,30.429,59.594,31.462,59.779,32.532z"/><path fill="#fff7f0" d="M37.165 31.063c-.277 0-.553.055-.812.166s-.48.258-.682.443l-.074-.24c-.018-.129-.129-.221-.258-.203h-.682c-.074 0-.129.018-.184.055-.037.055-.055.111-.055.184v6.271c0 .074.018.129.055.184.055.037.111.055.184.055l.904-.018c.037 0 .055 0 .092 0 .111-.037.166-.129.148-.24v-2.066c.166.148.369.258.59.332.24.092.48.129.738.129.369 0 .738-.111 1.033-.314.314-.24.572-.553.719-.904.184-.424.277-.904.258-1.365 0-.756-.184-1.365-.535-1.808C38.271 31.284 37.718 31.045 37.165 31.063zM37.497 34.752c-.184.24-.48.369-.775.35-.332 0-.646-.074-.904-.24V32.39c.277-.166.59-.258.922-.258.295-.037.59.111.775.35.166.24.24.627.24 1.144S37.663 34.512 37.497 34.752zM42.938 31.192h-.129c-.258 0-.498.055-.719.166-.277.148-.516.35-.719.59l-.129-.516c-.018-.129-.129-.221-.258-.203H40.3c-.074 0-.129.018-.184.055-.037.055-.055.111-.055.184v4.335c0 .018 0 .055 0 .074.018.111.129.184.24.166h.904c.074 0 .129-.018.184-.055.037-.055.055-.111.055-.184v-3.136c.184-.055.35-.111.535-.148.184-.037.35-.055.535-.055.092-.018.184 0 .258 0s.129 0 .166 0c.074.018.129-.018.184-.055.037-.055.055-.111.055-.184v-.793c.018-.074-.018-.129-.055-.184C43.067 31.211 43.012 31.192 42.938 31.192zM44.949 31.229h-.904c-.074 0-.129.018-.184.055-.037.055-.055.111-.055.184v4.335c0 .018 0 .055 0 .074.018.111.129.184.24.166h.904c.074.018.129-.018.184-.055.037-.055.055-.111.055-.185v-4.335c0-.037 0-.055 0-.092C45.151 31.266 45.059 31.211 44.949 31.229zM43.934 29.218c-.295.295-.295.775 0 1.07.166.148.369.221.572.203.203 0 .424-.074.572-.203.295-.295.295-.775 0-1.07C44.746 28.96 44.266 28.96 43.934 29.218zM52.327 31.1c-.314 0-.609.055-.885.148-.314.111-.627.277-.904.461-.24-.406-.627-.609-1.199-.609-.295 0-.572.037-.83.129-.314.111-.627.277-.904.461l-.074-.258c-.018-.129-.129-.221-.258-.203H46.59c-.074 0-.129.018-.184.055-.037.055-.055.111-.055.184v4.335c0 .018 0 .055 0 .074.018.111.129.184.24.166h.904c.074 0 .129-.018.184-.055.037-.055.055-.111.055-.185v-3.412c.314-.166.664-.258 1.033-.258.387 0 .572.221.572.646v3.025c0 .018 0 .055 0 .074.018.111.129.184.24.166h.904c.074.018.129-.018.184-.055.037-.055.055-.111.055-.185v-3.412c.332-.148.682-.24 1.033-.24.387 0 .572.221.572.646v3.025c0 .018 0 .055 0 .074.018.111.129.184.24.166h.904c.074 0 .129-.018.184-.055.037-.055.055-.111.055-.184v-3.32c.018-.387-.111-.756-.369-1.033C53.065 31.211 52.696 31.081 52.327 31.1zM58.506 34.918h-.055l-.055.018c-.24.055-.461.111-.701.148-.166.018-.35.037-.516.037-.35.018-.682-.074-.978-.277-.221-.184-.35-.48-.387-.904.295.074.609.111.922.111.682 0 1.217-.129 1.568-.369.35-.24.553-.646.535-1.07.018-.424-.166-.848-.498-1.125s-.775-.424-1.365-.424c-.775 0-1.365.24-1.789.701-.424.461-.646 1.107-.646 1.918 0 .812.221 1.42.627 1.844.406.424 1.015.646 1.789.646.498.018.996-.074 1.512-.277.074-.018.129-.055.166-.111.037-.055.037-.129.037-.203v-.443C58.672 34.992 58.617 34.918 58.506 34.918zM56.864 32.041c.461 0 .701.203.701.59 0 .166-.074.35-.221.443-.221.111-.461.166-.701.148-.277 0-.553-.018-.83-.074C55.905 32.409 56.256 32.041 56.864 32.041zM10.692 17.13H8.796v-1.878c0-.552-.448-1-1-1H6.291c-.552 0-1 .448-1 1v9.469c0 .265.105.52.293.707l1.646 1.646c.188.188.442.293.707.293h2.754c.552 0 1-.448 1-1v-1.505c0-.552-.448-1-1-1H8.796v-3.209h1.896c.552 0 1-.448 1-1V18.13C11.692 17.578 11.244 17.13 10.692 17.13zM25.079 17.13h-1.523c-.552 0-1 .448-1 1v5.733h-1.273V18.13c0-.552-.448-1-1-1H18.76c-.552 0-1 .448-1 1v5.733h-1.273V18.13c0-.552-.448-1-1-1h-1.523c-.552 0-1 .448-1 1v8.237c0 .552.448 1 1 1h9.469c.265 0 .52-.105.707-.293l1.646-1.646c.188-.188.293-.442.293-.707V18.13C26.079 17.578 25.631 17.13 25.079 17.13zM29.875 17.13h-1.523c-.552 0-1 .448-1 1v8.237c0 .552.448 1 1 1h1.523c.552 0 1-.448 1-1V18.13C30.875 17.578 30.427 17.13 29.875 17.13zM30.075 14.253h-1.923c-.442 0-.8.358-.8.8v.005c0 .442.358.8.8.8h1.923c.442 0 .8-.358.8-.8v-.005C30.875 14.611 30.517 14.253 30.075 14.253zM37.548 27.367c.552 0 1-.448 1-1v-1.505c0-.552-.448-1-1-1H35.67v-3.209h1.878c.552 0 1-.448 1-1V18.13c0-.552-.448-1-1-1H35.67v-1.878c0-.552-.448-1-1-1h-1.523c-.552 0-1 .448-1 1v9.466c0 .267.106.522.296.71l1.662 1.648c.187.186.44.29.704.29h2.739C37.548 27.366 37.548 27.367 37.548 27.367zM41.778 27.074c.188.188.442.293.707.293h4.027c.552 0 1-.448 1-1v-1.505c0-.552-.448-1-1-1h-3.169v-3.209h3.169c.552 0 1-.448 1-1V18.13c0-.552-.448-1-1-1h-4.025c-.267 0-.522.107-.71.296l-1.648 1.662c-.186.187-.29.44-.29.704v4.929c0 .265.105.52.293.707L41.778 27.074zM49.785 27.367h1.523c.552 0 1-.448 1-1v-5.714h2.878v5.714c0 .552.448 1 1 1h1.523c.552 0 1-.448 1-1v-6.573c0-.265-.105-.52-.293-.707l-1.665-1.665c-.188-.188-.442-.293-.707-.293h-3.736v-1.878c0-.552-.448-1-1-1h-1.523c-.552 0-1 .448-1 1v11.115C48.785 26.92 49.233 27.367 49.785 27.367z"/><g><path fill="#8d6c9f" d="M7 51.02c-.552 0-1-.448-1-1v-2c0-.552.448-1 1-1s1 .448 1 1v2C8 50.572 7.552 51.02 7 51.02zM12 51.02c-.552 0-1-.448-1-1v-2c0-.552.448-1 1-1s1 .448 1 1v2C13 50.572 12.552 51.02 12 51.02zM17 51.02c-.552 0-1-.448-1-1v-2c0-.552.448-1 1-1s1 .448 1 1v2C18 50.572 17.552 51.02 17 51.02zM22 51.02c-.552 0-1-.448-1-1v-2c0-.552.448-1 1-1s1 .448 1 1v2C23 50.572 22.552 51.02 22 51.02zM27 51.02c-.552 0-1-.448-1-1v-2c0-.552.448-1 1-1s1 .448 1 1v2C28 50.572 27.552 51.02 27 51.02zM32 51.02c-.552 0-1-.448-1-1v-2c0-.552.448-1 1-1 .552 0 1 .448 1 1v2C33 50.572 32.552 51.02 32 51.02zM37 51.02c-.552 0-1-.448-1-1v-2c0-.552.448-1 1-1s1 .448 1 1v2C38 50.572 37.552 51.02 37 51.02zM42 51.02c-.552 0-1-.448-1-1v-2c0-.552.448-1 1-1s1 .448 1 1v2C43 50.572 42.552 51.02 42 51.02zM47 51.02c-.552 0-1-.448-1-1v-2c0-.552.448-1 1-1s1 .448 1 1v2C48 50.572 47.552 51.02 47 51.02zM52 51.02c-.552 0-1-.448-1-1v-2c0-.552.448-1 1-1s1 .448 1 1v2C53 50.572 52.552 51.02 52 51.02zM57 51.02c-.552 0-1-.448-1-1v-2c0-.552.448-1 1-1s1 .448 1 1v2C58 50.572 57.552 51.02 57 51.02z"/></g></svg>